<svg xmlns="http://www.w3.org/2000/svg" width="25.269" height="20.536" viewBox="0 0 25.269 20.536">
  <path id="Path_21" data-name="Path 21" d="M153.515,374.692A14.744,14.744,0,0,0,176.2,361.6a10.5,10.5,0,0,0,2.587-2.684,10.306,10.306,0,0,1-2.977.816,5.189,5.189,0,0,0,2.279-2.868,10.383,10.383,0,0,1-3.292,1.259,5.188,5.188,0,0,0-8.834,4.729,14.71,14.71,0,0,1-10.685-5.418,5.191,5.191,0,0,0,1.6,6.923,5.168,5.168,0,0,1-2.349-.649,5.19,5.19,0,0,0,4.158,5.149,5.173,5.173,0,0,1-2.34.088,5.185,5.185,0,0,0,4.842,3.6A10.422,10.422,0,0,1,153.515,374.692Z" transform="translate(-153.515 -356.485)" fill="#0e0a15"/>
</svg>
