<svg xmlns="http://www.w3.org/2000/svg" width="19.38" height="19.38" viewBox="0 0 19.38 19.38">
  <path id="linkedin_square" data-name="linkedin square" d="M2.99,16.226H5.9V7.469H2.99Zm3.1-11.456A1.491,1.491,0,0,0,5.64,3.684a1.612,1.612,0,0,0-1.173-.429,1.679,1.679,0,0,0-1.192.429,1.419,1.419,0,0,0-.461,1.085,1.444,1.444,0,0,0,.448,1.079,1.6,1.6,0,0,0,1.167.435h.013a1.66,1.66,0,0,0,1.2-.435A1.434,1.434,0,0,0,6.094,4.769Zm7.381,11.456H16.39V11.2a4.19,4.19,0,0,0-.921-2.94,3.158,3.158,0,0,0-2.435-1A2.933,2.933,0,0,0,10.4,8.744h.025V7.469H7.507q.038.833,0,8.756h2.915v-4.9a2.087,2.087,0,0,1,.088-.707,1.948,1.948,0,0,1,.568-.751,1.428,1.428,0,0,1,.934-.309q1.464,0,1.464,1.981Zm5.9-12.592V15.746a3.64,3.64,0,0,1-3.634,3.634H3.634a3.5,3.5,0,0,1-2.568-1.066A3.5,3.5,0,0,1,0,15.746V3.634A3.5,3.5,0,0,1,1.066,1.066,3.5,3.5,0,0,1,3.634,0H15.746a3.5,3.5,0,0,1,2.568,1.066A3.5,3.5,0,0,1,19.38,3.634Zm0,14.131"/>
</svg>
